<?xml version="1.0" encoding="UTF-8"?>
<svg id="Capa_2" data-name="Capa 2" xmlns="http://www.w3.org/2000/svg" viewBox="0 0 364.902 103.658">
  <defs>
    <style>
      .cls-1 {
        fill: #2c4e45;
      }
    </style>
  </defs>
  <g id="Capa_1-2" data-name="Capa 1">
    <g>
      <g>
        <path class="cls-1" d="M308.33,43.315c1.491-3.567,3.569-6.684,6.233-9.35,2.667-2.665,5.784-4.744,9.351-6.234,3.569-1.488,7.43-2.234,11.584-2.234,4.078,0,7.921.746,11.526,2.234,3.608,1.49,6.724,3.569,9.35,6.234,2.628,2.666,4.704,5.783,6.233,9.35,1.529,3.568,2.294,7.43,2.294,11.585,0,4.078-.764,7.921-2.294,11.527-.56,1.321-1.194,2.574-1.901,3.763-4.896-.684-7.228-3.384-8.336-5.913-.866-1.976-1.086-4.173-.738-6.303.158-.965.331-2.218.331-3.074,0-2.352-.43-4.528-1.294-6.527-.862-2-2.018-3.743-3.47-5.234-1.45-1.488-3.176-2.646-5.175-3.469-2-.824-4.175-1.235-6.528-1.235-2.352,0-4.528.411-6.527,1.235-1.999.824-3.743,1.981-5.234,3.469-1.488,1.491-2.646,3.235-3.47,5.234-.823,1.999-1.235,4.175-1.235,6.527,0,2.352.412,4.528,1.235,6.528.824,2,1.981,3.725,3.47,5.175,1.491,1.452,3.235,2.608,5.234,3.47,1.999.863,4.175,1.293,6.527,1.293,2.352,0,4.528-.43,6.528-1.293.031-.013.061-.027.092-.04,1.276-.558,2.724-.556,3.991.022,7.365,3.361,14.545.16,14.597.137-1.223,2.058-2.666,3.921-4.331,5.586-2.626,2.628-5.743,4.704-9.35,6.233-3.606,1.529-7.448,2.294-11.526,2.294-4.155,0-8.016-.765-11.584-2.294-3.567-1.529-6.684-3.605-9.351-6.233-2.665-2.627-4.743-5.743-6.233-9.35-1.488-3.606-2.235-7.449-2.235-11.527,0-4.155.746-8.016,2.235-11.585Z"/>
        <path class="cls-1" d="M351.316,87.725l-12.254,6.127c-.664-1.307-2.017-2.204-3.582-2.204s-2.919.897-3.582,2.204l-12.254-6.127c-.604-.302-1.314.137-1.314.812v14.212c0,.675.711,1.114,1.314.812l12.235-6.118c.656,1.328,2.02,2.243,3.601,2.243s2.945-.915,3.601-2.243l12.235,6.118c.604.302,1.314-.137,1.314-.812v-14.212c0-.675-.71-1.114-1.314-.812Z"/>
      </g>
      <path class="cls-1" d="M65.95,71.173c-2.219-.141-3.983-.848-5.29-2.121-1.472-1.432-2.207-3.419-2.207-5.965v-14.809c0-.517-.419-.937-.937-.937h-11.248c-.517,0-.937.419-.937.937v6.817c0,2.228-.418,4.336-1.252,6.323-.835,1.989-1.968,3.698-3.4,5.13-1.432,1.431-3.122,2.564-5.07,3.4-1.95.835-4.076,1.252-6.382,1.252-2.228,0-4.315-.417-6.263-1.252-1.95-.835-3.659-1.969-5.13-3.4-1.472-1.432-2.624-3.141-3.46-5.13-.835-1.987-1.252-4.095-1.252-6.323,0-2.305.418-4.433,1.252-6.382.835-1.948,1.987-3.638,3.46-5.069,1.471-1.432,3.18-2.565,5.13-3.4,1.948-.835,4.035-1.252,6.263-1.252h28.289c.517,0,.937-.419.937-.937v-11.248c0-.517-.419-.937-.937-.937h-28.289c-4.056,0-7.873.757-11.452,2.266-3.579,1.511-6.68,3.579-9.305,6.203-2.624,2.625-4.693,5.708-6.203,9.246-1.511,3.54-2.267,7.377-2.267,11.511,0,4.057.755,7.873,2.267,11.452,1.51,3.578,3.579,6.68,6.203,9.304,2.624,2.625,5.726,4.693,9.305,6.203,3.579,1.51,7.396,2.267,11.452,2.267s7.813-.715,11.273-2.147c3.46-1.432,6.502-3.419,9.126-5.965,1.828,2.546,4.235,4.533,7.217,5.965,2.719,1.305,5.717,2.015,8.998,2.131.526.018.963-.417.963-.944v-11.247c0-.487-.368-.91-.854-.941Z"/>
      <rect class="cls-1" x="75.986" y="3.566" width="13.122" height="79.925" rx=".937" ry=".937"/>
      <path class="cls-1" d="M101.569,38.161v44.393c0,.517.419.937.937.937h11.248c.517,0,.937-.419.937-.937v-44.393h12.782c.517,0,.937-.419.937-.937v-11.248c0-.517-.419-.937-.937-.937h-12.782c0-4.294,1.172-6.362,3.519-8.589,2.181-2.07,5.274-3.179,9.28-3.324.509-.019.92-.424.92-.934V.944c0-.525-.435-.957-.96-.943-3.678.093-7.038.727-10.075,1.896-3.301,1.274-6.125,3.042-8.47,5.308-2.347,2.267-4.156,5.011-5.427,8.231-1.273,3.221-1.909,5.627-1.909,9.603v13.122Z"/>
      <path class="cls-1" d="M151.3,26.888c-3.301,1.234-6.125,3.003-8.469,5.308-2.347,2.307-4.157,5.09-5.427,8.35-1.273,3.262-1.909,6.919-1.909,10.975v31.033c0,.517.419.937.937.937h11.248c.517,0,.937-.419.937-.937v-31.51c0-3.976,1.232-7.117,3.698-9.424,2.464-2.305,5.804-3.459,10.021-3.459l5.005-.286v-12.69l-5.005-.146c-4.056,0-7.735.617-11.035,1.849Z"/>
      <path class="cls-1" d="M222.777,33.449c-2.624-2.663-5.746-4.731-9.364-6.203-3.62-1.471-7.575-2.207-11.87-2.207s-8.252.736-11.87,2.207c-3.62,1.472-6.74,3.54-9.364,6.203-2.624,2.666-4.673,5.827-6.143,9.484-1.472,3.66-2.207,7.635-2.207,11.929,0,4.375.735,8.391,2.207,12.049,1.471,3.659,3.519,6.799,6.143,9.424,2.624,2.624,5.745,4.672,9.364,6.143,3.618,1.47,7.575,2.207,11.87,2.207,3.418,0,6.62-.458,9.603-1.372,2.982-.913,5.685-2.225,8.112-3.936,2.425-1.71,4.513-3.777,6.263-6.204,1.506-2.089,2.719-4.4,3.637-6.933.218-.603-.246-1.238-.888-1.238h-12.526c-.302,0-.581.152-.757.398-1.396,1.952-3.194,3.45-5.391,4.494-2.347,1.114-5.031,1.67-8.052,1.67-4.455,0-8.093-1.173-10.915-3.52-2.824-2.345-4.593-5.547-5.309-9.603h45.45c.159-.794.258-1.45.298-1.968.039-.517.06-1.054.06-1.611,0-4.294-.736-8.27-2.207-11.929-1.472-3.657-3.519-6.818-6.143-9.484ZM185.916,48.897c1.032-3.34,2.902-5.965,5.606-7.873,2.703-1.908,6.043-2.863,10.021-2.863,3.896,0,7.196.954,9.901,2.863,2.703,1.908,4.611,4.533,5.726,7.873h-31.254Z"/>
      <path class="cls-1" d="M295.652,3.566h-11.248c-.517,0-.937.419-.937.937v26.381c-2.386-1.829-5.01-3.26-7.873-4.294-2.863-1.033-5.965-1.551-9.305-1.551-3.898,0-7.575.757-11.035,2.266-3.459,1.511-6.442,3.579-8.947,6.203-2.505,2.625-4.494,5.726-5.965,9.305-1.472,3.579-2.207,7.396-2.207,11.451,0,4.136.755,7.974,2.267,11.512,1.51,3.54,3.579,6.621,6.203,9.245,2.624,2.625,5.726,4.693,9.305,6.204,3.579,1.511,7.396,2.266,11.452,2.266h28.289c.517,0,.937-.419.937-.937v-11.248c0-.517-.419-.937-.937-.937h-28.289c-2.228,0-4.315-.417-6.263-1.252-1.95-.835-3.659-1.968-5.13-3.4-1.472-1.432-2.624-3.141-3.46-5.13-.835-1.987-1.252-4.095-1.252-6.323,0-2.305.418-4.432,1.252-6.382.835-1.948,1.987-3.638,3.46-5.069,1.471-1.432,3.18-2.564,5.13-3.4,1.948-.835,4.035-1.252,6.263-1.252,2.305,0,4.432.417,6.382,1.252,1.948.835,3.638,1.968,5.07,3.4,1.431,1.432,2.564,3.122,3.4,5.069.835,1.951,1.252,4.077,1.252,6.382v6.818c0,.517.419.937.937.937h11.248c.517,0,.937-.419.937-.937V4.503c0-.517-.419-.937-.937-.937Z"/>
    </g>
  </g>
</svg>