<svg width="154" height="45" viewBox="0 0 154 45" fill="none" xmlns="http://www.w3.org/2000/svg">
<path d="M27.7997 30.1984C26.864 30.1385 26.121 29.8404 25.5696 29.3031C24.9491 28.6987 24.6394 27.86 24.6394 26.7848V20.5329C24.6394 20.3146 24.4626 20.1375 24.2446 20.1375H19.5033C19.2853 20.1375 19.1085 20.3146 19.1085 20.5329V23.4109C19.1085 24.3513 18.9322 25.2411 18.5807 26.0798C18.2287 26.9196 17.751 27.6411 17.1475 28.2455C16.544 28.8494 15.8312 29.3279 15.0102 29.6809C14.1882 30.0335 13.292 30.2095 12.32 30.2095C11.3809 30.2095 10.5012 30.0335 9.68026 29.6809C8.85819 29.3284 8.13772 28.8499 7.51774 28.2455C6.89721 27.6411 6.41177 26.9196 6.05922 26.0798C5.70722 25.2411 5.5315 24.3513 5.5315 23.4109C5.5315 22.4374 5.70777 21.5393 6.05922 20.7166C6.41122 19.8944 6.89666 19.1806 7.51774 18.5767C8.13772 17.9723 8.85819 17.4938 9.68026 17.1413C10.5012 16.7888 11.3809 16.6128 12.32 16.6128H24.2446C24.4626 16.6128 24.6394 16.4357 24.6394 16.2174V11.469C24.6394 11.2507 24.4626 11.0736 24.2446 11.0736H12.32C10.61 11.0736 9.00097 11.3931 7.49248 12.0305C5.98399 12.6685 4.67649 13.5413 3.57052 14.6489C2.46455 15.7571 1.59196 17.0583 0.955506 18.552C0.318503 20.0462 0 21.6658 0 23.4114C0 25.124 0.318503 26.7354 0.955506 28.2461C1.59196 29.7568 2.464 31.0663 3.57052 32.1739C4.67649 33.2821 5.98399 34.1554 7.49248 34.7922C9.00097 35.4296 10.61 35.7492 12.32 35.7492C14.03 35.7492 15.6137 35.4473 17.0717 34.8429C18.5302 34.2385 19.8125 33.3997 20.9184 32.3246C21.6889 33.3992 22.7037 34.2385 23.9607 34.8429C25.1067 35.3939 26.3708 35.6936 27.7536 35.742C27.9754 35.7497 28.1594 35.5661 28.1594 35.3439V30.5961C28.1594 30.3904 28.0045 30.2116 27.7997 30.1984Z" fill="#1F3726"/>
<path d="M36.8612 1.50488H32.1193C31.9013 1.50488 31.7245 1.68192 31.7245 1.9003V34.8506C31.7245 35.0689 31.9013 35.246 32.1193 35.246H36.8612C37.0792 35.246 37.256 35.0689 37.256 34.8506V1.9003C37.256 1.68192 37.0792 1.50488 36.8612 1.50488Z" fill="#1F3726"/>
<path d="M42.3553 16.1095V34.8505C42.3553 35.0688 42.5322 35.2459 42.7502 35.2459H47.4915C47.7095 35.2459 47.8863 35.0688 47.8863 34.8505V16.1095H53.2739C53.4919 16.1095 53.6688 15.9324 53.6688 15.7141V10.9658C53.6688 10.7474 53.4919 10.5704 53.2739 10.5704H47.8863C47.8863 8.75769 48.3805 7.88434 49.3695 6.94446C50.2888 6.07058 51.593 5.60258 53.2811 5.54154C53.4958 5.53384 53.6688 5.36278 53.6688 5.14719V0.398291C53.6688 0.176658 53.4853 -0.00537816 53.264 0.00012143C51.7133 0.0397185 50.2976 0.307029 49.017 0.800892C47.6255 1.33875 46.4349 2.08502 45.4465 3.04195C44.4575 3.99888 43.6947 5.15709 43.1587 6.51658C42.6222 7.87663 42.3542 8.89241 42.3542 10.5709V16.1106L42.3553 16.1095Z" fill="#1F3726"/>
<path d="M63.0117 11.3499C61.6201 11.8708 60.4302 12.6176 59.4417 13.591C58.4527 14.565 57.6894 15.7397 57.154 17.1163C56.6175 18.4934 56.3495 20.0371 56.3495 21.7491V34.8503C56.3495 35.0686 56.5263 35.2457 56.7443 35.2457H61.4856C61.7036 35.2457 61.8804 35.0686 61.8804 34.8503V21.5478C61.8804 19.8694 62.3999 18.5434 63.4394 17.5694C64.4784 16.596 65.8864 16.1093 67.6634 16.1093L69.7732 15.9883V10.6312L67.6634 10.5696C65.9534 10.5696 64.4021 10.8297 63.0117 11.3499Z" fill="#1F3726"/>
<path d="M93.2939 14.1195C92.188 12.9954 90.8717 12.1226 89.3467 11.5012C87.8207 10.8803 86.1535 10.5696 84.3435 10.5696C82.5335 10.5696 80.8652 10.8803 79.3403 11.5012C77.8142 12.1226 76.499 12.9954 75.393 14.1195C74.2871 15.2448 73.4233 16.5795 72.8033 18.1233C72.1828 19.6681 71.873 21.346 71.873 23.1592C71.873 25.006 72.1828 26.7015 72.8033 28.2458C73.4233 29.7901 74.2865 31.1161 75.393 32.2242C76.499 33.3318 77.8148 34.1969 79.3403 34.8178C80.8652 35.4387 82.5335 35.7494 84.3435 35.7494C85.7844 35.7494 87.1342 35.5559 88.3912 35.1703C89.6482 34.7848 90.7877 34.231 91.8107 33.5089C92.8327 32.7868 93.7129 31.9146 94.4504 30.89C95.0852 30.0084 95.5965 29.0328 95.9831 27.9631C96.0753 27.7085 95.8793 27.4401 95.6086 27.4401H90.3286C90.2012 27.4401 90.0837 27.5045 90.0095 27.6084C89.4214 28.4328 88.6636 29.0647 87.7366 29.5052C86.7476 29.9754 85.6158 30.2102 84.3424 30.2102C82.4643 30.2102 80.9311 29.7153 79.7417 28.7243C78.5511 27.7343 77.806 26.3825 77.5039 24.6705H96.6624C96.7294 24.335 96.7711 24.0584 96.7881 23.8395C96.8046 23.6212 96.8134 23.3946 96.8134 23.1592C96.8134 21.3466 96.5031 19.6681 95.8831 18.1233C95.2626 16.5795 94.4005 15.2453 93.2939 14.1195ZM77.7565 20.6415C78.192 19.2314 78.98 18.1232 80.12 17.3176C81.2595 16.5119 82.6675 16.1093 84.344 16.1093C85.986 16.1093 87.3775 16.5119 88.5175 17.3176C89.657 18.1232 90.4615 19.2314 90.931 20.6415H77.7565Z" fill="#1F3726"/>
<path d="M124.32 1.50488H119.579C119.361 1.50488 119.184 1.68197 119.184 1.9003V13.0375C118.178 12.2654 117.072 11.6615 115.866 11.2249C114.659 10.7887 113.352 10.5704 111.944 10.5704C110.301 10.5704 108.75 10.8899 107.292 11.5273C105.834 12.1653 104.577 13.0381 103.521 14.1457C102.465 15.2539 101.626 16.5633 101.007 18.074C100.386 19.5848 100.077 21.1962 100.077 22.9082C100.077 24.6543 100.395 26.2745 101.032 27.7682C101.669 29.2624 102.541 30.5631 103.647 31.6707C104.753 32.7789 106.061 33.6522 107.569 34.2896C109.078 34.9275 110.687 35.2465 112.397 35.2465H124.321C124.539 35.2465 124.716 35.0695 124.716 34.8511V30.1028C124.716 29.8844 124.539 29.7073 124.321 29.7073H112.397C111.458 29.7073 110.578 29.5314 109.757 29.1788C108.935 28.8263 108.214 28.3478 107.594 27.7434C106.974 27.139 106.488 26.4175 106.136 25.5777C105.784 24.739 105.608 23.8492 105.608 22.9087C105.608 21.9353 105.784 21.0378 106.136 20.2145C106.488 19.3923 106.973 18.679 107.594 18.0746C108.214 17.4702 108.935 16.9923 109.757 16.6392C110.578 16.2867 111.458 16.1107 112.397 16.1107C113.369 16.1107 114.265 16.2867 115.087 16.6392C115.908 16.9917 116.621 17.4702 117.224 18.0746C117.828 18.679 118.305 19.3923 118.657 20.2145C119.009 21.0378 119.185 21.9353 119.185 22.9087V25.7867C119.185 26.005 119.362 26.1821 119.58 26.1821H124.321C124.539 26.1821 124.716 26.005 124.716 25.7867V1.90141C124.716 1.68307 124.539 1.50599 124.321 1.50599L124.32 1.50488Z" fill="#1F3726"/>
<path d="M129.813 18.1992C130.451 16.6719 131.339 15.3372 132.478 14.1954C133.618 13.0543 134.951 12.1645 136.476 11.5265C138.002 10.8891 139.653 10.5696 141.429 10.5696C143.172 10.5696 144.815 10.8891 146.357 11.5265C147.899 12.1645 149.231 13.0548 150.354 14.1954C151.478 15.3372 152.366 16.6714 153.019 18.1992C153.673 19.7269 154 21.3807 154 23.1592C154 24.9378 153.673 26.5508 153.019 28.0946C152.78 28.6599 152.509 29.1967 152.207 29.7059C150.321 29.7158 149.263 29.0399 148.67 28.259C148.018 27.4005 147.869 26.2676 148.177 25.2348C148.372 24.5831 148.469 23.8912 148.469 23.1592C148.469 22.1523 148.285 21.2206 147.916 20.3643C147.548 19.5081 147.053 18.7618 146.433 18.1233C145.813 17.4859 145.075 16.9904 144.22 16.6378C143.365 16.2853 142.435 16.1093 141.43 16.1093C140.424 16.1093 139.494 16.2853 138.639 16.6378C137.784 16.9904 137.039 17.4859 136.401 18.1233C135.765 18.7618 135.27 19.5081 134.918 20.3643C134.566 21.2201 134.39 22.1523 134.39 23.1592C134.39 24.1668 134.566 25.0978 134.918 25.9541C135.27 26.8104 135.765 27.549 136.401 28.1699C137.038 28.7919 137.784 29.2863 138.639 29.6559C139.494 30.0255 140.424 30.2097 141.43 30.2097C142.435 30.2097 143.365 30.0255 144.22 29.6559C144.234 29.6504 144.247 29.6443 144.259 29.6388C144.811 29.3974 145.432 29.4056 145.98 29.6548C149.124 31.083 152.184 29.717 152.207 29.7065C151.683 30.5881 151.067 31.3855 150.355 32.0983C149.232 33.2235 147.9 34.1122 146.357 34.7672C144.816 35.4217 143.173 35.7494 141.429 35.7494C139.653 35.7494 138.002 35.4217 136.476 34.7672C134.951 34.1128 133.619 33.2235 132.479 32.0983C131.339 30.9736 130.451 29.6394 129.814 28.0946C129.177 26.5503 128.858 24.9053 128.858 23.1592C128.858 21.3801 129.177 19.7269 129.814 18.1992H129.813Z" fill="#1F3726"/>
<path d="M134.257 43.8127V38.4137C134.257 38.004 134.688 37.7378 135.053 37.9209L140.444 40.6202C140.85 40.8231 140.85 41.4027 140.444 41.6057L135.053 44.3049C134.688 44.488 134.257 44.2218 134.257 43.8121V43.8127Z" fill="#1F3726"/>
<path d="M148.6 38.4138V43.8127C148.6 44.2225 148.17 44.4886 147.804 44.3055L142.413 41.6063C142.008 41.4034 142.008 40.8237 142.413 40.6208L147.804 37.9216C148.17 37.7384 148.6 38.0041 148.6 38.4138Z" fill="#1F3726"/>
<path d="M141.429 42.8205C142.371 42.8205 143.134 42.0562 143.134 41.1134C143.134 40.1707 142.371 39.4064 141.429 39.4064C140.488 39.4064 139.725 40.1707 139.725 41.1134C139.725 42.0562 140.488 42.8205 141.429 42.8205Z" fill="#1F3726"/>
</svg>
